<svg width="20" height="20" viewBox="0 0 20 20" fill="none" xmlns="http://www.w3.org/2000/svg">
<path d="M4.98388 4.54098H18.5578L16.6253 12.7538C16.3744 13.8201 15.4229 14.5738 14.3274 14.5738H9.45677C8.38561 14.5738 7.44875 13.8526 7.17466 12.8172L4.98388 4.54098ZM4.98388 4.54098L4.09863 1H1.44287" stroke="#595667" stroke-width="1.5" stroke-linecap="round" stroke-linejoin="round"/>
<path d="M7.64066 19C8.29255 19 8.821 18.4715 8.821 17.8197C8.821 17.1678 8.29255 16.6393 7.64066 16.6393C6.98878 16.6393 6.46033 17.1678 6.46033 17.8197C6.46033 18.4715 6.98878 19 7.64066 19Z" fill="#595667"/>
<path d="M15.9036 19C16.5555 19 17.0839 18.4715 17.0839 17.8197C17.0839 17.1678 16.5555 16.6393 15.9036 16.6393C15.2517 16.6393 14.7233 17.1678 14.7233 17.8197C14.7233 18.4715 15.2517 19 15.9036 19Z" fill="#595667"/>
</svg>
